<svg xmlns="http://www.w3.org/2000/svg" xml:space="preserve" viewBox="0 0 512 512"><path d="M240.4 376.2c0-.4-.6-37.3-18.8-72-21.9-42-59.7-62.2-115.3-61.9-24.6.2-44.6-19.7-44.8-44.2-.1-24.6 19.7-44.6 44.3-44.8 65-.4 118 19.3 157.4 58.6C328.6 277 329.4 372 329.4 376h-89zm241.4-.2c0-3.8-.5-94.4-46-185.6C392.5 103.5 300.3 0 106.8 0 82.3 0 62.3 19.9 62.3 44.5S82.3 89 106.8 89c117.7 0 201.2 46.6 248.1 138.6 37 72.6 37.9 147.8 37.9 148.4 0 24.6 19.9 44.5 44.5 44.5s44.5-19.9 44.5-44.5m-297.4-3.7c0 24.4-10.3 51.7-28.2 74.9-20.5 26.3-65 64.2-79.3 64.7h-1.3l.7-1.1c4.3-7.2 26.3-56.2 28.9-63.3-41.4-.5-75-34-75-75.2 0-41.5 34.1-75.2 75.9-75.2 42.4 0 78.3 34.5 78.3 75.2" style="fill:#231f20"/></svg>