<?xml version="1.0" standalone="no"?><!DOCTYPE svg PUBLIC "-//W3C//DTD SVG 1.1//EN" "http://www.w3.org/Graphics/SVG/1.1/DTD/svg11.dtd"><svg t="1564226990819" class="icon" viewBox="0 0 1024 1024" version="1.1" xmlns="http://www.w3.org/2000/svg" p-id="1117" xmlns:xlink="http://www.w3.org/1999/xlink" width="200" height="200"><defs><style type="text/css"></style></defs><path d="M962.496 448.96c-3.584-19.84-22.656-39.808-42.304-44.288l-14.72-3.392c-34.624-10.432-65.536-33.536-84.992-67.328-19.648-33.984-24.128-72.576-15.616-107.968 0 0 0 0 0 0l4.288-13.824c5.952-19.264-1.792-45.76-17.216-58.816 0 0-13.824-11.712-52.992-34.304-39.168-22.592-56.128-28.736-56.128-28.736-19.008-6.848-45.76-0.32-59.52 14.464L612.928 115.84C586.56 140.672 551.104 155.904 512 155.904c-39.232 0-74.88-15.36-101.248-40.384L400.832 104.832C387.136 90.048 360.32 83.52 341.312 90.368c0 0-17.024 6.144-56.256 28.736C245.952 141.696 232.128 153.344 232.128 153.344 216.768 166.4 209.024 192.832 214.976 212.16l4.288 14.016c8.448 35.328 3.904 73.856-15.68 107.776C184 367.872 152.896 391.04 118.08 401.408L103.808 404.672c-19.648 4.48-38.72 24.448-42.304 44.288 0 0-3.2 17.792-3.2 63.04 0 45.248 3.2 62.976 3.2 62.976 3.584 19.84 22.656 39.808 42.304 44.288l13.952 3.2c0 0 0 0 0 0 34.944 10.304 66.112 33.536 85.824 67.584 19.648 33.984 24.128 72.576 15.616 107.968 0 0 0 0 0 0l-4.224 13.76c-5.952 19.264 1.792 45.76 17.216 58.816 0 0 13.824 11.712 52.992 34.304 39.168 22.592 56.128 28.736 56.128 28.736 19.008 6.848 45.76 0.32 59.52-14.464l9.792-10.56c26.432-25.024 62.08-40.448 101.376-40.448 39.296 0 75.008 15.424 101.44 40.512 0 0 0 0 0.064 0l9.728 10.496c13.76 14.784 40.512 21.312 59.52 14.464 0 0 17.024-6.144 56.256-28.736 39.168-22.592 52.928-34.304 52.928-34.304 15.424-13.056 23.168-39.488 17.216-58.816l-4.352-14.208c-8.32-35.264-3.84-73.664 15.744-107.52 19.648-34.048 50.88-57.216 85.824-67.584 0 0 0-0.064 0-0.064l13.952-3.2c19.648-4.48 38.72-24.448 42.304-44.288 0 0 3.2-17.792 3.2-63.04C965.696 466.752 962.496 448.96 962.496 448.96zM512 692.928c-99.904 0-180.928-81.024-180.928-180.928S412.096 331.136 512 331.136s180.928 81.024 180.928 180.928S611.904 692.928 512 692.928z" p-id="1118"></path></svg>